<svg xmlns="http://www.w3.org/2000/svg" xmlns:xlink="http://www.w3.org/1999/xlink" width="26" height="24" viewBox="0 0 26 24">
    <defs>
        <path id="a" d="M0 .056h26.026v23.728H0z"/>
    </defs>
    <g fill="none" fill-rule="evenodd">
        <g>
            <mask id="b" fill="#fff">
                <use xlink:href="#a"/>
            </mask>
            <path fill="#053C89" d="M26.026 18.96a2.83 2.83 0 0 0-.308-1.29 2.996 2.996 0 0 0-1.293-1.283 3.611 3.611 0 0 0-1.677-.4l-.066.002a2.539 2.539 0 0 0 .048-.482 2.641 2.641 0 0 0-.878-1.973 3.04 3.04 0 0 0-1.04-.611 3.39 3.39 0 0 0-1.119-.189 3.09 3.09 0 0 0-1.627.449 6.637 6.637 0 0 0-.289-1.079 6.46 6.46 0 0 0-.395-.858 7.914 7.914 0 0 0 1.123-1.596c.554-1.047.89-2.204.894-3.392 0-.776-.149-1.515-.428-2.174a5.252 5.252 0 0 0-1.95-2.33 6.096 6.096 0 0 0-2.743-.967 8.13 8.13 0 0 0-.932-.054 7.225 7.225 0 0 0-1.555.165 2.98 2.98 0 0 0-1.052-.644A3.398 3.398 0 0 0 9.587.056c-.71.001-1.43.215-2.06.662a3.623 3.623 0 0 0-.845.842 3.894 3.894 0 0 0-.535 1.075h-.001L.249 19.35H.25a4.06 4.06 0 0 0-.187.676c-.042.23-.063.45-.063.67 0 .432.084.862.25 1.25a2.958 2.958 0 0 0 1.177 1.36c.5.306 1.064.456 1.632.456.772 0 1.554-.274 2.193-.82.049-.041.094-.086.14-.13.46.26.95.47 1.464.624.761.228 1.57.348 2.393.348 1.037 0 2.11-.176 3.148-.573a8.007 8.007 0 0 0 2.203-1.273c.308.043.626.065.952.064a6.872 6.872 0 0 0 3.21-.779c.039.166.09.33.157.486a2.955 2.955 0 0 0 1.173 1.341 3.4 3.4 0 0 0 1.688.485h.008l.098.001c.778 0 1.56-.236 2.222-.708a4.013 4.013 0 0 0 1.47-2.026l-.002.001.287-.862-.004.012c.11-.321.168-.662.167-.994" mask="url(#b)"/>
        </g>
        <path fill="#FFF" d="M11.386 17.901c-.611-.604-1.2-1.096-2.127-1.096-.86 0-1.448.402-1.629.984-.045.112-.045.224-.045.336 0 .515.475.895 1.312.895.815 0 1.788-.358 2.489-1.119m-.294-9.6c.656 0 1.267.224 1.493.403 1.086-.448 1.402-1.522 1.402-2.17 0-.762-.656-1.254-1.47-1.254-.973 0-2.24.537-2.805 1.634l-2.715 7.43c.565-.247 1.425-.359 2.15-.359 1.515.022 2.736.604 3.55 1.388a3.72 3.72 0 0 0 .25-1.298c0-.739-.317-1.231-.883-1.365-.226.09-.543.134-.882.134-.86 0-1.877-.358-2.262-1.544a2.75 2.75 0 0 1-.068-.604c0-1.03.656-1.947 1.38-2.238.272-.112.565-.157.86-.157m8.551 5.751c.724 0 1.448.425 1.448 1.164 0 .09-.023.201-.045.313-.792 2.73-2.919 4.543-5.566 4.543-.543 0-.995-.067-1.425-.201-1.357 1.387-3.19 1.969-4.909 1.969-1.787 0-3.529-.694-4.32-1.813-.227 1.23-1.11 1.79-1.901 1.79-.77 0-1.47-.537-1.47-1.454 0-.224.045-.515.158-.806L7.54 2.975c.317-1.03 1.176-1.5 1.946-1.5.769 0 1.447.449 1.447 1.187.86-.425 1.697-.515 2.33-.515.317 0 .566.023.77.045 1.968.201 3.71 1.567 3.71 3.85 0 1.722-1.04 3.692-2.556 4.698.95 1.007 1.334 2.238 1.334 3.424 0 1.141-.34 2.238-.837 3.088h.023c1.244 0 2.149-.917 2.624-2.305.181-.626.747-.895 1.312-.895M22.918 18.965c0 .116-.067.28-.175.335-.18-.06-.382-.039-.49.095l.14-.379c.072-.129.21-.22.34-.215.109 0 .185.07.185.164m1.069.249l-.225.641c-.09-.03-.206.013-.251.16-.135.357-.292.451-.413.451-.059 0-.086-.026-.086-.064a.16.16 0 0 1 .014-.06l.143-.353a.566.566 0 0 0 .05-.211.37.37 0 0 0-.117-.28c.184-.125.3-.408.3-.607 0-.296-.268-.464-.542-.477a.56.56 0 0 0-.35.077c-.027-.129-.337-.193-.436.06l-.745 2.014c-.103.276.359.366.458.1l.395-1.068c.004.082.072.25.4.15.071 0 .116.048.116.113 0 .03-.004.068-.022.103l-.108.266a.542.542 0 0 0-.045.194c0 .241.21.405.503.405.05 0 .099-.005.143-.013-.323.275-.722.4-1.122.391-.597-.017-1.019-.344-1.019-.852 0-.12.027-.262.08-.408.1-.276.207-.556.31-.83a1.645 1.645 0 0 1 1.536-1.072c.642 0 1.09.366 1.09.856a.892.892 0 0 1-.057.314m-1.024-1.76c-.853 0-1.796.448-2.209 1.575l-.283.788a1.694 1.694 0 0 0-.107.576c0 .8.655 1.398 1.63 1.424a2.382 2.382 0 0 0 2.347-1.643l.301-.865c.058-.164.085-.323.085-.478 0-.822-.794-1.376-1.764-1.376"/>
    </g>
</svg>
