<svg xmlns="http://www.w3.org/2000/svg" width="70" height="57" viewBox="0 0 70 57">
    <g fill="none" fill-rule="evenodd">
        <path fill="#053C89" d="M53.297.563C54.359 0 55.453-.141 56.578.14c1.125.281 2.016.89 2.672 1.828.656.937.89 2 .703 3.187l-5.531 36.375c-.25 1.438-1 2.5-2.25 3.188a4.442 4.442 0 0 1-2.156.562A5.596 5.596 0 0 1 48.234 45l-10.5-4.406-4.03 5.625c-.876 1.062-1.954 1.64-3.235 1.734-1.282.094-2.422-.281-3.422-1.125s-1.5-1.953-1.5-3.328v-7.875l-10.688-4.5c-1.125-.437-1.922-1.187-2.39-2.25-.469-1.062-.547-2.14-.235-3.234.313-1.094 1-1.953 2.063-2.578l39-22.5zM30.047 43.5l3.469-4.687-3.47-1.407V43.5zm19.969-2.719l5.53-36.28-39 22.499 10.126 4.219 19.781-17.344c.438-.375.906-.484 1.406-.328.5.156.844.469 1.032.937.187.47.125.922-.188 1.36L35.578 34.875l14.438 5.906z"/>
        <path fill="#FFF" fill-rule="nonzero" d="M5 39.5a4.5 4.5 0 1 1 0-9 4.5 4.5 0 0 1 0 9zm0-1a3.5 3.5 0 1 0 0-7 3.5 3.5 0 0 0 0 7z"/>
        <path fill="#4FBFE5" fill-rule="nonzero" d="M26.014 10.626a1 1 0 1 1 .972 1.748l-13.5 7.5a1 1 0 1 1-.972-1.748l13.5-7.5z"/>
        <path stroke="#4FBFE5" d="M64.031 25.75l4.092.43.855 4.025-3.563 2.057-3.057-2.753z"/>
        <path fill="#4FBFE5" fill-rule="nonzero" d="M18.4 43.196a1 1 0 0 1 1.229 1.579l-9.015 7.014a1 1 0 1 1-1.228-1.578l9.015-7.015z"/>
        <path fill="#FFF" fill-rule="nonzero" d="M39.054 48.71a1 1 0 1 1 1.922.551l-2.015 7.015a1 1 0 0 1-1.922-.552l2.015-7.015z"/>
    </g>
</svg>
