<svg xmlns="http://www.w3.org/2000/svg" width="60" height="60" viewBox="0 0 60 60">
    <g fill="none" fill-rule="evenodd" transform="translate(-1)">
        <path fill="#053C89" d="M43.547 6c1.25 0 2.312.438 3.187 1.313s1.313 1.937 1.313 3.187v39c0 1.25-.438 2.312-1.313 3.187S44.797 54 43.547 54h-21c-1.25 0-2.313-.438-3.188-1.313s-1.312-1.937-1.312-3.187v-39c0-1.25.437-2.312 1.312-3.187S21.297 6 22.547 6h21zm-10.5 45c.812 0 1.515-.297 2.11-.89.593-.594.89-1.298.89-2.11 0-.812-.297-1.516-.89-2.11-.595-.593-1.298-.89-2.11-.89-.813 0-1.516.297-2.11.89-.593.594-.89 1.298-.89 2.11 0 .812.297 1.516.89 2.11.594.593 1.297.89 2.11.89zm10.5-10.125v-29.25c0-.312-.11-.578-.328-.797a1.085 1.085 0 0 0-.797-.328h-18.75c-.313 0-.578.11-.797.328a1.085 1.085 0 0 0-.328.797v29.25c0 .313.11.578.328.797.219.219.484.328.797.328h18.75c.312 0 .578-.11.797-.328.218-.219.328-.484.328-.797z"/>
        <path fill="#20D888" d="M3.031 16.75l4.092.43.855 4.025-3.563 2.057-3.057-2.753zM56.031 33.75l4.092.43.855 4.025-3.563 2.057-3.057-2.753z"/>
        <path fill="#053C89" d="M13 42.666c0-.368.304-.666.68-.666.376 0 .68.298.68.666v12.005c0 2.207 1.827 3.997 4.08 3.997h10.88c.376 0 .68.298.68.666a.673.673 0 0 1-.68.666H18.44C15.436 60 13 57.614 13 54.67V42.667zM54 17.334a.673.673 0 0 1-.68.666.673.673 0 0 1-.68-.666V5.329c0-2.207-1.827-3.997-4.08-3.997H37.68A.673.673 0 0 1 37 .666c0-.368.304-.666.68-.666h10.88C51.564 0 54 2.386 54 5.33v12.004z"/>
        <circle cx="59" cy="58" r="2" fill="#FFF"/>
        <circle cx="7" cy="5" r="2" fill="#FFF"/>
    </g>
</svg>
