<svg xmlns="http://www.w3.org/2000/svg" xmlns:xlink="http://www.w3.org/1999/xlink" width="131" height="56" viewBox="0 0 131 56">
    <defs>
        <path id="a" d="M.024.501h130.464v20.881H.024z"/>
        <path id="c" d="M0 .757h78.937V31H0z"/>
    </defs>
    <g fill="none" fill-rule="evenodd">
        <path fill="#FFF" d="M77.088 4.536c1.08 0 1.968-.888 1.968-1.992 0-1.08-.888-1.944-1.968-1.944s-1.968.864-1.968 1.944c0 1.104.888 1.992 1.968 1.992"/>
        <g transform="translate(0 -.501)">
            <mask id="b" fill="#fff">
                <use xlink:href="#a"/>
            </mask>
            <path fill="#FFF" d="M121.247 12.982l-1.152 3.576c-.504 1.561-1.416 1.92-1.92 1.92-.528 0-.792-.336-.792-.888 0-.312.072-.6.143-.816l1.537-4.824c.455-1.464 1.128-1.656 1.512-1.656.456 0 .96.456.96 1.272 0 .36-.096.815-.288 1.416zm-12.888 0l-.983 2.76c-.72 1.776-1.68 1.992-2.137 1.896-.456-.12-.576-.48-.576-.864 0-.312.072-.6.145-.816l1.367-4.008c.48-1.416 1.13-1.656 1.512-1.656.456 0 .96.456.96 1.272 0 .36-.072.815-.288 1.416zm-61.198-.36c-.072.215-.144.408-.169.6-1.319-.144-2.496.936-2.496 2.376.024.816.433 1.248.888 1.632-.312.84-1.008 1.248-1.752 1.248-.936 0-1.176-.576-1.176-1.152 0-.456.12-.888.216-1.128l1.704-4.872c.288-.792 1.13-1.248 1.873-1.248.743 0 1.224.504 1.224 1.055 0 .433-.144.985-.312 1.49zM11.642 8.397a4.248 4.248 0 0 0-1.513-.288c-.984 0-1.896.36-2.472 1.13l1.152-3.29c.576-1.08 1.656-1.848 2.711-1.848.913 0 1.538.576 1.538 1.441 0 .96-.553 2.376-1.416 2.855zm10.942 2.856c.265-.744.864-1.175 1.417-1.175.672 0 1.103.551 1.103 1.248 0 .192-.023.384-.095.576-.24.792-.96 1.08-1.68 1.08-.457 0-.913-.097-1.249-.288l.504-1.44zm60.12 0c.264-.744.863-1.175 1.416-1.175.672 0 1.104.551 1.104 1.248 0 .192-.024.384-.096.576-.24.792-.96 1.08-1.68 1.08-.457 0-.913-.097-1.249-.288l.504-1.44zm46.464 1.97c-.672 0-1.416.406-1.704 1.32-.936 2.952-2.448 3.935-3.529 3.935-.408 0-.647-.216-.647-.6 0-.192.047-.432.12-.696l2.688-7.776c.096-.288.143-.553.143-.792 0-1.057-.863-1.609-1.752-1.609-.672 0-1.367.312-1.752.913-.504-.313-1.439-.672-2.664-.672-1.584 0-3.312.863-3.96 2.712l-2.257 6.456c-.046.14-.078.28-.113.42-.758 1.128-1.542 1.644-2.237 1.644-.48 0-.744-.336-.744-.72 0-.144.024-.288.12-.576l4.896-14.138c.096-.287.216-.695.216-.959 0-1.033-.84-1.584-1.68-1.584-.745 0-1.44.551-1.872 1.8l-2.184 6.193c-.72-.792-1.777-1.248-2.905-1.248-1.559 0-3.24.863-3.887 2.687l-2.13 6.054c-.909 1.737-1.92 2.491-2.815 2.491-.43 0-.67-.216-.67-.624 0-.168.046-.359.12-.6l1.871-5.329c.168-.479.264-.912.264-1.319 0-1.92-1.632-3.36-3.552-3.36-.937 0-1.68.215-2.305.672-.144-.433-.744-.672-1.392-.672-.672 0-1.32.311-1.56.983l-2.878 8.046c-1.252 1.542-3.08 2.203-4.634 2.203-1.752 0-2.856-.84-2.856-1.944 0-.216.024-.432.121-.672l.191-.456a4.778 4.778 0 0 0 2.52.721c2.185 0 4.105-1.369 4.753-3.529.12-.456.192-.912.192-1.32 0-2.28-1.8-4.032-4.513-4.032-2.135 0-4.223 1.248-5.064 3.648l-1.416 4.104c-.064.19-.104.377-.15.565-.996 2.18-2.049 2.915-2.874 2.915-.55 0-.912-.359-.912-.815 0-.12.025-.24.073-.385l2.64-7.536c.096-.313.216-.649.216-.889 0-1.056-.793-1.607-1.608-1.607-.745 0-1.537.527-1.92 1.656-.766 2.247-1.769 5.091-2.535 7.318-.876 1.58-1.84 2.258-2.697 2.258-.479 0-.718-.288-.718-.647 0-.12 0-.24.046-.336l2.041-5.593c.144-.456.241-.937.241-1.345 0-2.04-1.8-3.31-3.985-3.31-.865 0-2.113.214-3.217 1.102-.503-.576-1.296-1.103-2.688-1.103-.983 0-1.56.288-1.992.551-.264-.36-.792-.55-1.32-.55-.744 0-1.512.358-1.8 1.054l-2.263 6.521c-.6.93-1.49 1.52-2.56 1.52-.096 0-.24 0-.336-.024 0 .024 0-.36-.097-.815.17-.12.337-.313.48-.529.408-.6 1.13-2.688 1.13-3.648 0-2.448-2.017-4.08-4.61-4.08-2.256 0-4.393 1.248-5.16 3.383l-1.752 4.945c-.013.036-.017.071-.029.107-1.287 1.98-3.109 2.774-4.602 2.774-1.656 0-2.713-.96-2.713-2.185 0-.264.048-.552.144-.864l1.463-4.153c.217-.576.698-.935 1.08-.935.481 0 .721.288.721.695 0 .265-.096.553-.264.89-.12.24-.192.478-.192.72 0 .838.792 1.487 1.632 1.487.696 0 1.44-.432 1.873-1.536.24-.649.336-1.224.336-1.777 0-2.255-1.873-3.55-3.937-3.55-1.896 0-3.936 1.102-4.8 3.623l-1.369 4.032a5.576 5.576 0 0 0-.236 1.1c-1.25 1.73-3.187 2.476-4.827 2.476-1.752 0-2.856-.84-2.856-1.944 0-.216.024-.432.121-.672l.191-.456a4.778 4.778 0 0 0 2.52.721c2.185 0 4.105-1.369 4.753-3.529.12-.456.192-.912.192-1.32 0-2.28-1.8-4.032-4.513-4.032-2.136 0-4.223 1.248-5.064 3.648l-1.416 4.104c-.063.186-.103.372-.148.557-.99 2.115-2.073 2.732-2.923 2.732-.432 0-.696-.217-.696-.529 0-.168.05-.336.12-.55l1.177-2.978c.264-.648.383-1.248.383-1.8 0-1.009-.36-1.776-.936-2.377 1.49-1.032 2.473-3.456 2.473-5.16 0-2.52-2.185-3.936-4.44-4.057-.12 0-.289-.023-.505-.023-.6 0-1.512.096-2.352.695C9.625.958 8.93.501 8.161.501c-.744 0-1.584.383-1.969 1.463L.143 19.127c-.07.24-.119.456-.119.647 0 .984.888 1.561 1.848 1.561.816 0 1.656-.432 1.992-1.369l3.217-9.072c.048.552.36 1.56 1.775 1.56.385 0 .866-.096 1.465-.288.6.024.96.408.96.96 0 .288-.048.576-.168.888l-.887 2.256c-.217.576-.336 1.152-.336 1.656 0 2.088 1.68 3.41 4.055 3.41 1.504 0 3.054-.538 4.393-1.89 1.097 1.203 2.958 1.89 5.134 1.89 1.998 0 4.155-.593 5.908-2.046 1.012 1.262 2.777 2.045 4.988 2.045 1.917 0 3.81-.61 5.397-1.837.827 1.17 2.301 1.837 3.916 1.837 1.871 0 3.576-.6 4.584-2.329a5.44 5.44 0 0 0 2.544.081l-.097.28a1.8 1.8 0 0 0-.097.575c0 .89.77 1.393 1.61 1.393.815 0 1.631-.48 1.967-1.44l2.856-8.209c.504-1.032 1.272-1.608 1.992-1.608.48 0 .816.263.816.696 0 .12-.024.288-.095.456l-2.809 7.8c-.12.312-.192.625-.192.89 0 .911.72 1.415 1.536 1.415.793 0 1.656-.48 2.016-1.512l2.761-7.8c.432-1.2 1.344-1.945 2.136-1.945.432 0 .767.288.767.744 0 .143-.024.311-.095.528l-1.824 4.968a4.93 4.93 0 0 0-.289 1.608c0 2.185 1.801 3.41 3.913 3.41 1.147 0 2.355-.365 3.485-1.276.754.82 1.918 1.275 3.21 1.275 1.363 0 2.806-.49 4.106-1.865 1.101 1.188 2.95 1.865 5.11 1.865a9.76 9.76 0 0 0 3.716-.724c.228.51.766.771 1.347.771.84 0 1.8-.528 2.16-1.608.84-2.328 1.993-5.616 2.808-7.92.648-1.2 1.488-1.776 2.161-1.776.432 0 .743.288.743.744 0 .168-.048.384-.12.6l-1.752 4.944c-.19.553-.312 1.08-.312 1.584 0 2.21 1.824 3.385 3.865 3.385 1.184 0 2.406-.393 3.542-1.323.692.824 1.761 1.323 2.962 1.323 1.127 0 2.375-.384 3.336-1.32.744.816 1.896 1.32 3.095 1.32 1.104 0 2.285-.374 3.394-1.239a3.719 3.719 0 0 0 2.798 1.24c1.128 0 2.28-.505 3.168-1.297.768 1.103 2.473 1.296 3.192 1.296 1.992 0 4.657-1.008 6.193-4.897.336-.935.6-1.536.6-1.968 0-.816-.624-1.248-1.32-1.248z" mask="url(#b)"/>
        </g>
        <path fill="#FFF" d="M25.465 28.544c0-1.08-.888-1.943-1.968-1.943s-1.97.863-1.97 1.943c0 1.104.89 1.992 1.97 1.992s1.968-.888 1.968-1.992"/>
        <g transform="translate(0 24.499)">
            <mask id="d" fill="#fff">
                <use xlink:href="#c"/>
            </mask>
            <path fill="#FFF" d="M70.392 13.622c-.072.216-.145.408-.168.601-1.32-.145-2.496.935-2.496 2.376.023.815.432 1.248.888 1.631-.312.84-1.01 1.248-1.752 1.248-.937 0-1.177-.576-1.177-1.152 0-.456.12-.888.217-1.128l1.703-4.872c.289-.792 1.129-1.248 1.873-1.248s1.224.504 1.224 1.056c0 .432-.144.984-.312 1.488zm-17.784 13.01c-.336.887-1.08 1.344-1.8 1.344-.553 0-.793-.336-.793-.769 0-.144.024-.336.097-.504.336-.84 1.512-1.296 3.072-1.704l-.576 1.632zM11.81 8.51c-.24-.193-.89-.432-1.584-.432-.313 0-.625.048-.912.168-.77.312-1.465 1.296-1.465 2.4 0 .216.024.432.072.648.408 1.272 1.489 1.656 2.4 1.656.36 0 .696-.048.936-.144.6.144.937.672.937 1.464 0 .41-.073.865-.265 1.392-.863-.84-2.16-1.464-3.767-1.488-.77 0-1.681.12-2.281.385L8.76 6.59c.6-1.177 1.944-1.752 2.977-1.752.863 0 1.56.527 1.56 1.344 0 .696-.336 1.847-1.488 2.328zM7.898 19.575c-.89 0-1.393-.408-1.393-.96 0-.12 0-.24.048-.36.193-.624.816-1.057 1.728-1.057.984 0 1.609.528 2.257 1.177-.745.815-1.777 1.2-2.64 1.2zm71.039-4.633c0-.887-.65-1.392-1.345-1.392-.647 0-1.32.384-1.584 1.272-.528 1.488-1.632 2.521-3.048 2.521-.095 0-.24 0-.336-.025 0 .025 0-.36-.096-.815a2.05 2.05 0 0 0 .48-.528c.407-.6 1.128-2.689 1.128-3.649 0-2.448-2.015-4.08-4.608-4.08-2.257 0-4.393 1.248-5.161 3.384l-1.752 4.944c-.051.142-.075.28-.112.421-.918 1.514-2.185 2.523-3.607 3.252l3.385-9.77c.072-.215.095-.407.095-.575 0-.984-.863-1.656-1.752-1.656-.671 0-1.392.407-1.728 1.368l-2.76 8.112c-.767 1.296-1.607 1.777-2.256 1.777-.432 0-.696-.265-.696-.696 0-.168.048-.384.12-.6l2.664-7.562a2.14 2.14 0 0 0 .145-.743c0-.984-.866-1.656-1.753-1.656-.672 0-1.392.407-1.728 1.368l-2.69 7.647c-.873 1.536-1.816 2.217-2.638 2.217-.432 0-.72-.24-.72-.576 0-.095.025-.239.073-.359l2.856-8.017c.096-.24.119-.456.119-.673 0-.96-.84-1.607-1.703-1.607-.697 0-1.416.407-1.777 1.416l-2.64 7.368c-.672 1.321-1.704 2.448-2.664 2.448-.36 0-.552-.24-.552-.599 0-.193.047-.504.119-.744l2.618-7.49c.095-.263.143-.503.143-.743 0-.984-.864-1.656-1.753-1.656-.672 0-1.391.407-1.727 1.368l-2.521 7.35c-.936 1.736-1.988 2.514-2.88 2.514-.48 0-.743-.288-.743-.647 0-.097.048-.265.096-.408l5.04-14.594c.097-.288.144-.576.144-.815 0-.913-.864-1.513-1.584-1.513-.912 0-1.512.504-1.896 1.584L30.52 16.883c-.946 1.793-2.018 2.595-2.92 2.595-.48 0-.744-.288-.744-.647 0-.097.047-.265.096-.408l5.04-14.594c.096-.288.143-.576.143-.815 0-.913-.863-1.513-1.584-1.513-.912 0-1.512.504-1.895 1.584L23.854 16.8c-.961 1.987-1.965 2.678-2.757 2.678-.553 0-.912-.359-.912-.815 0-.12.023-.24.072-.385l2.64-7.536c.097-.312.216-.648.216-.889 0-1.055-.792-1.607-1.608-1.607-.744 0-1.537.527-1.92 1.656-.67 1.968-1.523 4.392-2.24 6.46-.54.817-1.288 1.317-2.223 1.317h-.024a6.737 6.737 0 0 0 .888-3.313c0-1.272-.408-2.592-1.416-3.672 1.608-1.08 2.713-3.192 2.713-5.04 0-2.449-1.85-3.913-3.938-4.129a7.07 7.07 0 0 0-.815-.048c-.673 0-1.56.096-2.472.552 0-.792-.721-1.272-1.537-1.272-.817 0-1.728.504-2.065 1.608L.168 20.15a2.49 2.49 0 0 0-.168.865c0 .984.745 1.56 1.56 1.56.84 0 1.777-.6 2.018-1.92.839 1.2 2.687 1.944 4.584 1.944 1.824 0 3.767-.624 5.208-2.113.456.145.936.217 1.512.217.764 0 1.482-.155 2.147-.424.627 1.322 2.095 2.056 3.756 2.056 1.128 0 2.312-.338 3.423-1.232.73.798 1.862 1.232 3.104 1.232 1.115 0 2.367-.343 3.553-1.272.728.826 1.88 1.272 3.143 1.272 1.08 0 2.29-.325 3.443-1.19.654.742 1.66 1.19 2.82 1.19 1.44 0 2.52-.696 3.409-1.656.696 1.032 1.992 1.656 3.433 1.656 1.022 0 2.112-.289 3.158-1.055.482.531 1.154.9 1.929 1.055-2.93.648-5.833 1.85-5.833 4.801 0 2.328 2.16 3.864 4.513 3.864 2.375 0 4.608-1.273 5.616-4.057.336-1.008.72-2.064 1.08-3.048 1.974-.62 3.978-1.508 5.642-3.106.856.988 2.218 1.546 3.694 1.546 1.872 0 3.576-.6 4.584-2.328.432.12.936.192 1.44.192 2.833 0 5.064-2.016 5.88-4.537a2.82 2.82 0 0 0 .12-.72z" mask="url(#d)"/>
        </g>
        <path fill="#FFF" d="M80.135 42.897a1.947 1.947 0 0 0-1.968 1.97c0 1.08.864 1.967 1.968 1.967 1.08 0 1.968-.888 1.968-1.968a1.962 1.962 0 0 0-1.968-1.969"/>
    </g>
</svg>
