<svg xmlns="http://www.w3.org/2000/svg" xmlns:xlink="http://www.w3.org/1999/xlink" width="139" height="53" viewBox="0 0 139 53">
    <defs>
        <path id="a" d="M.52.094h16.994v20.834H.52z"/>
        <path id="c" d="M0 .35h53.066v15.746H0z"/>
    </defs>
    <g fill="none" fill-rule="evenodd">
        <g transform="translate(35 -.094)">
            <mask id="b" fill="#fff">
                <use xlink:href="#a"/>
            </mask>
            <path fill="#FFF" d="M4.552 20.928c1.393 0 3-.624 4.225-2.832l8.329-15.098c.31-.551.408-1.007.408-1.416 0-.96-.673-1.488-1.488-1.488-.77 0-1.704.504-2.233 1.68a2017.65 2017.65 0 0 1-8.04 14.809c-.36.624-.793 1.105-1.13.985-.118-.025-.215-.168-.215-.432 0-.12.025-.265.073-.456L7.697 2.807c.048-.217.072-.433.072-.625 0-1.344-.985-2.088-1.97-2.088-.862 0-1.702.576-1.967 1.824L.64 16.415a4.32 4.32 0 0 0-.12 1.057c0 2.256 2.064 3.456 4.032 3.456" mask="url(#b)"/>
        </g>
        <path fill="#FFF" d="M53.952 10.753c.264-.744.864-1.176 1.416-1.176.672 0 1.105.552 1.105 1.248 0 .193-.025.384-.097.576-.239.792-.959 1.081-1.68 1.081-.456 0-.912-.097-1.248-.289l.504-1.44zm9.602 3.864c.031-.083.05-.16.064-.234l1.158-3.102c.672.216 1.561.384 1.561 1.201 0 .12-.025.263-.072.431l-1.057 2.929c-.192.552-.287 1.056-.287 1.536 0 2.088 1.656 3.456 3.648 3.456 2.615 0 4.992-2.328 6.408-6.385.048-.143.073-.263.073-.383 0-.72-.793-1.201-1.56-1.201-.625 0-1.226.288-1.44 1.008-.913 2.353-2.137 4.105-3.145 4.105-.336 0-.505-.312-.505-.648 0-.144.025-.336.097-.528l1.416-3.937c.143-.48.24-.912.24-1.32 0-2.28-2.88-3.24-4.224-3.648.072-.192.095-.408.095-.6 0-1.105-.984-2.04-2.064-2.04-1.416 0-2.256 1.248-2.256 2.616 0 .6.216 1.224.6 1.704l-1.692 4.566c-1.074 2.723-3.559 3.835-5.58 3.835-1.752 0-2.855-.84-2.855-1.945 0-.216.023-.431.12-.672l.191-.456a4.77 4.77 0 0 0 2.521.721c2.183 0 4.103-1.368 4.752-3.528.12-.456.192-.912.192-1.321 0-2.28-1.8-4.032-4.513-4.032-2.136 0-4.224 1.248-5.064 3.649l-1.416 4.103c-.192.576-.313 1.152-.313 1.704 0 2.857 2.69 4.633 6.194 4.633 3.336 0 7.13-1.632 8.713-6.217zM130.44 12.121c-.072.216-.144.408-.17.601-1.319-.145-2.496.935-2.496 2.376.025.815.434 1.248.89 1.631-.313.84-1.008 1.248-1.752 1.248-.938 0-1.177-.576-1.177-1.152 0-.456.12-.888.216-1.128l1.705-4.872c.286-.792 1.127-1.248 1.871-1.248s1.225.504 1.225 1.056c0 .432-.145.984-.313 1.488m-31.391 0c-.073.216-.145.408-.169.601-1.32-.145-2.496.935-2.496 2.376.025.815.433 1.248.889 1.631-.312.84-1.01 1.248-1.753 1.248-.936 0-1.177-.576-1.177-1.152 0-.456.121-.888.218-1.128l1.703-4.872c.288-.792 1.128-1.248 1.872-1.248.744 0 1.225.504 1.225 1.056 0 .432-.144.984-.313 1.488m38.593-.072c-.648 0-1.32.384-1.584 1.272-.528 1.488-1.633 2.521-3.05 2.521-.095 0-.238 0-.335-.025 0 .025 0-.36-.095-.815.168-.12.335-.313.48-.528.407-.6 1.127-2.689 1.127-3.649 0-2.448-2.016-4.08-4.607-4.08-2.256 0-4.393 1.248-5.16 3.384l-1.752 4.944a5.118 5.118 0 0 0-.204.766c-.86 1.492-1.794 2.138-2.627 2.138-.48 0-.72-.288-.72-.647 0-.12 0-.24.047-.336l2.04-5.593c.144-.456.24-.936.24-1.344 0-2.04-1.8-3.312-3.983-3.312-.865 0-2.113.216-3.217 1.104-.504-.577-1.296-1.104-2.688-1.104-.985 0-1.56.288-1.993.552-.263-.36-.793-.552-1.32-.552-.743 0-1.511.36-1.8 1.056l-2.264 6.523c-.6.93-1.49 1.518-2.558 1.518-.097 0-.24 0-.337-.025 0 .025 0-.36-.097-.815.17-.12.337-.313.481-.528.407-.6 1.129-2.689 1.129-3.649 0-2.448-2.017-4.08-4.61-4.08-2.257 0-4.392 1.248-5.16 3.384l-1.752 4.944c-.014.036-.017.071-.028.11-1.286 1.978-3.11 2.771-4.603 2.771-1.656 0-2.713-.96-2.713-2.185 0-.263.048-.55.144-.864l1.466-4.152c.214-.576.694-.936 1.08-.936.48 0 .718.288.718.696 0 .264-.094.552-.263.888-.12.241-.193.48-.193.72 0 .84.792 1.488 1.633 1.488.697 0 1.44-.43 1.871-1.536a4.995 4.995 0 0 0 .337-1.776c0-2.256-1.871-3.552-3.936-3.552-1.897 0-3.937 1.104-4.8 3.624l-1.368 4.032a5.351 5.351 0 0 0-.288 1.681c0 2.76 2.4 4.752 5.927 4.752 1.918 0 3.81-.609 5.398-1.837.826 1.17 2.301 1.837 3.914 1.837 1.873 0 3.577-.6 4.585-2.328a5.502 5.502 0 0 0 2.543.082l-.096.278a1.796 1.796 0 0 0-.097.575c0 .89.769 1.393 1.609 1.393.816 0 1.632-.48 1.968-1.44l2.856-8.209c.504-1.032 1.273-1.608 1.992-1.608.48 0 .816.264.816.696 0 .12-.023.288-.096.456l-2.809 7.8c-.118.313-.19.625-.19.89 0 .911.72 1.415 1.535 1.415.792 0 1.655-.48 2.017-1.512l2.76-7.8c.431-1.2 1.344-1.945 2.136-1.945.432 0 .769.288.769.744 0 .144-.025.312-.096.53l-1.825 4.966a4.936 4.936 0 0 0-.288 1.61c0 2.183 1.8 3.407 3.912 3.407 1.237 0 2.543-.422 3.746-1.497.859.956 2.195 1.497 3.646 1.497 1.872 0 3.576-.6 4.584-2.328.431.12.935.192 1.44.192 2.831 0 5.064-2.016 5.88-4.537a2.81 2.81 0 0 0 .12-.72c0-.887-.649-1.392-1.345-1.392M121.247 37.257c-.6 1.896-1.27 3.673-1.92 5.545-.264.72-.912 1.152-1.56 1.176-.624 0-1.104-.336-1.104-1.008 0-.168.023-.36.096-.552l1.92-5.568c.288-.864.912-1.273 1.584-1.273.576 0 1.104.409 1.104 1.008 0 .216-.048.433-.12.672m-12.288 0c-.6 1.896-1.273 3.673-1.92 5.545-.265.72-.912 1.152-1.56 1.176-.625 0-1.105-.336-1.105-1.008 0-.168.025-.36.097-.552l1.921-5.568c.287-.864.911-1.273 1.584-1.273.576 0 1.103.409 1.103 1.008 0 .216-.048.433-.12.672m-12.216-5.4l-2.88 8.088c-.936 2.64-2.112 3.265-3.336 3.265-.887 0-1.44-.624-1.44-1.488 0-.288.072-.624.192-.985l3.312-9.432c.408-1.128 1.248-1.824 2.21-1.824 1.08 0 2.04.887 2.04 1.872 0 .168-.049.336-.098.504m32.761 8.016c0-.792-.672-1.271-1.392-1.271-.648 0-1.369.408-1.656 1.32-.769 1.968-2.16 3.24-3.816 3.84l.215-.504c.672-1.824 1.37-3.816 2.04-5.665.145-.407.216-.815.216-1.248 0-1.943-1.608-3.6-3.479-3.6-.649 0-1.416.12-1.946.552.05-.576-.744-1.032-1.607-1.032-.793 0-1.56.43-1.92 1.44l-2.67 7.546a6.222 6.222 0 0 1-3.138 2.51l.216-.503c.672-1.824 1.368-3.816 2.04-5.665.144-.407.216-.815.216-1.248 0-1.943-1.607-3.6-3.48-3.6-.648 0-1.416.12-1.944.552.047-.576-.744-1.032-1.608-1.032-.792 0-1.56.43-1.92 1.44l-2.628 7.43c-.955 1.677-2.078 2.675-3.203 2.675-.6 0-1.008-.336-1.008-.985 0-.311.096-.767.264-1.223l4.68-13.081c.144-.41.216-.77.216-1.08 0-1.105-.816-1.632-1.704-1.632-.936 0-1.968.552-2.352 1.607-.744-1.08-2.328-1.416-3.385-1.416-2.352 0-4.68 1.345-5.496 3.649l-3.912 11.016a5.42 5.42 0 0 0-.336 1.8c0 2.545 2.04 4.369 4.704 4.369 1.417 0 2.976-.624 4.177-1.8.816 1.176 2.255 1.8 3.864 1.8.545 0 1.058-.076 1.548-.207l-1.407 3.976a2.262 2.262 0 0 0-.167.815c0 .985.816 1.488 1.68 1.488.792 0 1.584-.383 1.872-1.271l1.92-5.69c.744.577 2.185.889 4.177.889 1.617 0 3.088-.23 4.392-.71l-1.584 4.479a2.203 2.203 0 0 0-.168.815c0 .985.815 1.488 1.68 1.488.791 0 1.583-.383 1.871-1.271l1.921-5.69c.744.577 2.184.889 4.176.889 4.656 0 8.137-1.848 9.721-6.385.072-.215.12-.408.12-.576"/>
        <g transform="translate(0 30.906)">
            <mask id="d" fill="#fff">
                <use xlink:href="#c"/>
            </mask>
            <path fill="#FFF" d="M32.425 7.575l-1.152 3.576c-.504 1.561-1.416 1.92-1.92 1.92-.53 0-.793-.336-.793-.888 0-.312.072-.6.144-.816l1.536-4.824c.456-1.464 1.128-1.656 1.513-1.656.455 0 .959.456.959 1.272 0 .36-.096.815-.287 1.416m-14.328 5.736c-1.01 0-1.897-.599-1.872-1.51v-.122c.336.36.84.577 1.39.577a2.035 2.035 0 0 0 2.018-2.04c0-.769-.385-1.513-1.08-1.969.19-.408.359-.72.504-1.032.336 1.032 1.39 2.904 1.39 3.912 0 1.152-1.006 2.136-2.35 2.184M51.505 7.96c-.624 0-1.225.288-1.44 1.008-.912 2.352-2.136 4.104-3.144 4.104-.336 0-.505-.31-.505-.647 0-.145.025-.336.097-.529l1.416-3.936c.143-.48.24-.912.24-1.32 0-2.28-2.881-3.24-4.224-3.649.072-.19.095-.407.095-.6 0-1.104-.984-2.04-2.064-2.04-1.416 0-2.256 1.248-2.256 2.617 0 .6.216 1.223.6 1.704l-1.583 4.27c-.03.068-.072.12-.095.194-.937 2.953-2.45 3.936-3.53 3.936-.408 0-.647-.216-.647-.6 0-.192.048-.432.12-.696L37.273 4c.096-.288.144-.553.144-.792 0-1.057-.864-1.609-1.752-1.609-.672 0-1.368.312-1.752.913-.504-.313-1.44-.672-2.664-.672-1.585 0-3.312.863-3.961 2.712l-2.177 6.232a5.765 5.765 0 0 1-1.566 1.4c.048-.312.096-.6.096-.912 0-1.392-.744-2.712-1.416-3.84-.481-.816-.96-1.632-1.056-2.377.672-.288 1.2-1.055 1.2-1.776 0-1.032-.793-1.992-1.992-1.992-.961 0-1.801.456-2.28 1.393-.895 1.743-1.854 3.504-2.775 5.23a1.49 1.49 0 0 0-1.118.926c-.765.71-1.282 1.708-1.383 2.726-.74 1.038-1.505 1.51-2.188 1.51-.433 0-.72-.24-.72-.576 0-.096.024-.239.072-.359L12.84 4.12c.096-.24.12-.456.12-.673 0-.96-.841-1.607-1.704-1.607-.696 0-1.416.407-1.776 1.416l-2.64 7.368c-.672 1.32-1.705 2.448-2.664 2.448-.361 0-.553-.24-.553-.6 0-.192.048-.503.12-.744L6.36 4.238a2.17 2.17 0 0 0 .144-.743c0-.984-.865-1.656-1.753-1.656-.672 0-1.391.407-1.727 1.368l-2.81 8.184A4.021 4.021 0 0 0 0 12.663c0 1.944 1.584 3.265 3.6 3.265 1.44 0 2.52-.697 3.409-1.657.695 1.033 1.992 1.657 3.432 1.657 1.144 0 2.373-.358 3.528-1.343 1.165 1.032 3.089 1.511 5.304 1.511 2.567 0 4.636-.53 6.258-1.627a3.71 3.71 0 0 0 2.982 1.46c1.127 0 2.279-.505 3.168-1.297.767 1.103 2.473 1.296 3.19 1.296 1.993 0 4.658-1.008 6.195-4.897.168-.467.316-.85.424-1.17l1.302-3.486c.672.216 1.56.384 1.56 1.2 0 .12-.024.264-.072.432l-1.056 2.928c-.192.552-.287 1.056-.287 1.536 0 2.088 1.656 3.457 3.648 3.457 2.615 0 4.992-2.329 6.408-6.385.048-.144.073-.264.073-.384 0-.72-.793-1.2-1.561-1.2" mask="url(#d)"/>
        </g>
        <path fill="#FFF" d="M63.863 36.753c.265-.744.864-1.176 1.417-1.176.672 0 1.104.552 1.104 1.248 0 .193-.024.384-.096.576-.24.792-.96 1.081-1.68 1.081-.457 0-.913-.097-1.249-.289l.504-1.44zm15.048 1.872c-.6 0-1.248.36-1.584 1.248-1.08 2.881-2.472 4.105-3.6 4.105-.48 0-.744-.288-.744-.648 0-.097.048-.265.096-.408l5.041-14.594c.096-.288.143-.576.143-.815 0-.912-.864-1.513-1.584-1.513-.912 0-1.512.504-1.896 1.584l-4.733 13.52c-1.226 2.025-3.343 2.874-5.107 2.874-1.752 0-2.856-.84-2.856-1.945 0-.216.024-.431.121-.672l.191-.456a4.769 4.769 0 0 0 2.52.721c2.185 0 4.105-1.368 4.753-3.528.12-.456.192-.912.192-1.321 0-2.28-1.8-4.032-4.513-4.032-2.135 0-4.223 1.248-5.064 3.649l-1.416 4.103c-.193.576-.312 1.152-.312 1.704 0 2.857 2.688 4.633 6.192 4.633 1.774 0 3.674-.469 5.305-1.59.695 1.029 1.967 1.59 3.383 1.59 2.28 0 5.136-1.416 6.817-6.408.047-.168.072-.336.072-.481 0-.767-.673-1.32-1.417-1.32zM130.798 42.898a1.946 1.946 0 0 0-1.967 1.968 1.96 1.96 0 0 0 1.967 1.968c1.08 0 1.969-.888 1.969-1.968a1.963 1.963 0 0 0-1.97-1.968"/>
    </g>
</svg>
